{
    "asset" : {
        "generator" : "Khronos glTF Blender I/O v1.2.75",
        "version" : "2.0"
    },
    "scene" : 0,
    "scenes" : [
        {
            "name" : "Scene",
            "nodes" : [
                0
            ]
        }
    ],
    "nodes" : [
        {
            "mesh" : 0,
            "name" : "Esfera",
            "scale" : [
                2.497723340988159,
                2.497723340988159,
                2.497723340988159
            ],
            "translation" : [
                0,
                3.02224063873291,
                0
            ]
        }
    ],
    "materials" : [
        {
            "doubleSided" : true,
            "emissiveFactor" : [
                0,
                0,
                0
            ],
            "name" : "Material.001",
            "pbrMetallicRoughness" : {
                "baseColorTexture" : {
                    "index" : 0,
                    "texCoord" : 0
                },
                "metallicFactor" : 0.018182000145316124,
                "roughnessFactor" : 0.018181830644607544
            }
        }
    ],
    "meshes" : [
        {
            "name" : "Esfera",
            "primitives" : [
                {
                    "attributes" : {
                        "POSITION" : 0,
                        "NORMAL" : 1,
                        "TANGENT" : 2,
                        "TEXCOORD_0" : 3
                    },
                    "indices" : 4,
                    "material" : 0
                }
            ]
        }
    ],
    "textures" : [
        {
            "sampler" : 0,
            "source" : 0
        }
    ],
    "images" : [
        {
            "bufferView" : 5,
            "mimeType" : "image/jpeg",
            "name" : "asteroide"
        }
    ],
    "accessors" : [
        {
            "bufferView" : 0,
            "componentType" : 5126,
            "count" : 2498,
            "max" : [
                1.3671115636825562,
                1.3591217994689941,
                1.1328903436660767
            ],
            "min" : [
                -1.1526858806610107,
                -1.2517476081848145,
                -1.2707948684692383
            ],
            "type" : "VEC3"
        },
        {
            "bufferView" : 1,
            "componentType" : 5126,
            "count" : 2498,
            "type" : "VEC3"
        },
        {
            "bufferView" : 2,
            "componentType" : 5126,
            "count" : 2498,
            "type" : "VEC4"
        },
        {
            "bufferView" : 3,
            "componentType" : 5126,
            "count" : 2498,
            "type" : "VEC2"
        },
        {
            "bufferView" : 4,
            "componentType" : 5123,
            "count" : 11904,
            "type" : "SCALAR"
        }
    ],
    "bufferViews" : [
        {
            "buffer" : 0,
            "byteLength" : 29976,
            "byteOffset" : 0
        },
        {
            "buffer" : 0,
            "byteLength" : 29976,
            "byteOffset" : 29976
        },
        {
            "buffer" : 0,
            "byteLength" : 39968,
            "byteOffset" : 59952
        },
        {
            "buffer" : 0,
            "byteLength" : 19984,
            "byteOffset" : 99920
        },
        {
            "buffer" : 0,
            "byteLength" : 23808,
            "byteOffset" : 119904
        },
        {
            "buffer" : 0,
            "byteLength" : 733355,
            "byteOffset" : 143712
        }
    ],
    "samplers" : [
        {
            "magFilter" : 9728,
            "minFilter" : 9984
        }
    ],
    "buffers" : [
        {
            "byteLength" : 877068,
            "uri" : "data:application/octet-stream;base64,"
        }
    ]
}
