<svg height="512pt" viewBox="-53 0 512 512" width="512pt" xmlns="http://www.w3.org/2000/svg" xmlns:xlink="http://www.w3.org/1999/xlink"><linearGradient id="a"><stop offset="0" stop-color="#ecf7ff"/><stop offset="1" stop-color="#c2e0ff"/></linearGradient><linearGradient id="b" gradientUnits="userSpaceOnUse" x1="64.1898111376" x2="287.5833377152" xlink:href="#a" y1="217.0631960144" y2="331.2421564482"/><linearGradient id="c"><stop offset=".0029" stop-color="#c2e0ff" stop-opacity="0"/><stop offset=".0763" stop-color="#bfdcfd" stop-opacity=".07451"/><stop offset="1" stop-color="#9eb2e7"/></linearGradient><linearGradient id="d" gradientUnits="userSpaceOnUse" x1="258.3423024056" x2="192.5137313748" xlink:href="#c" y1="393.2619478032" y2="125.0713133494"/><linearGradient id="e" gradientUnits="userSpaceOnUse" x1="157.7833509614" x2="204.8935955178" xlink:href="#a" y1="107.6180289872" y2="206.4572620454"/><linearGradient id="f" gradientUnits="userSpaceOnUse" x1="119.488545487" x2="165.8123175486" xlink:href="#a" y1="170.4881422762" y2="247.8976563224"/><linearGradient id="g" gradientUnits="userSpaceOnUse" x1="237.5475640586" x2="268.6333060432" xlink:href="#a" y1="140.0525401788" y2="205.2716301634"/><linearGradient id="h" gradientUnits="userSpaceOnUse" x1="277.6135891176" x2="182.7375389388" xlink:href="#c" y1="232.8188482746" y2="137.942898488"/><linearGradient id="i"><stop offset="0" stop-color="#45425a"/><stop offset="1" stop-color="#2d3251"/></linearGradient><linearGradient id="j" gradientUnits="userSpaceOnUse" x1="178.7198430948" x2="224.3817293818" xlink:href="#i" y1="133.9209861716" y2="179.5828724586"/><linearGradient id="k" gradientUnits="userSpaceOnUse" x1="89.7215554416" x2="123.6466900188" xlink:href="#i" y1="96.1130828672" y2="130.0382174444"/><linearGradient id="l" gradientUnits="userSpaceOnUse" x1="282.2260083544" x2="316.1512433238" xlink:href="#i" y1="96.1130828672" y2="130.0382174444"/><linearGradient id="m" gradientUnits="userSpaceOnUse" x1="134.7238649746" x2="103.4349291772" xlink:href="#c" y1="194.319644281" y2="95.170299717"/><linearGradient id="n" gradientUnits="userSpaceOnUse" x1="123.504735448" x2="89.371387448" xlink:href="#c" y1="222.9727828674" y2="138.4520877264"/><linearGradient id="o" gradientUnits="userSpaceOnUse" x1="128.7459110334" x2="87.7046761436" xlink:href="#c" y1="265.5607603826" y2="183.4780898186"/><linearGradient id="p" gradientUnits="userSpaceOnUse" x1="24.7582647826" x2="103.5787911998" xlink:href="#i" y1="125.1611643684" y2="203.9817911778"/><linearGradient id="q" gradientUnits="userSpaceOnUse" x1="36.541498081" x2="86.1042236912" xlink:href="#i" y1="176.7686783082" y2="226.3314039184"/><linearGradient id="r" gradientUnits="userSpaceOnUse" x1="52.7944933" x2="88.542147876" xlink:href="#i" y1="223.90472366" y2="259.6522778438"/><linearGradient id="s" gradientUnits="userSpaceOnUse" x1="344.2805354106" x2="313.8042744722" xlink:href="#c" y1="222.8257082944" y2="150.9018248406"/><linearGradient id="t" gradientUnits="userSpaceOnUse" x1="340.5741557788" x2="324.4217535442" xlink:href="#c" y1="230.552193183" y2="191.2379049176"/><linearGradient id="u" gradientUnits="userSpaceOnUse" x1="335.3119982236" x2="304.226256239" xlink:href="#c" y1="268.7575492072" y2="191.348035161"/><linearGradient id="v" gradientTransform="matrix(-1.003922 0 0 1.003922 230.338479 0)" gradientUnits="userSpaceOnUse" x1="-150.7762" x2="-72.2635" xlink:href="#i" y1="124.6722" y2="203.1849"/><linearGradient id="w" gradientTransform="matrix(-1.003922 0 0 1.003922 230.338479 0)" gradientUnits="userSpaceOnUse" x1="-139.039" x2="-89.6699" xlink:href="#i" y1="176.0781" y2="225.4472"/><linearGradient id="x" gradientTransform="matrix(-1.003922 0 0 1.003922 230.338479 0)" gradientUnits="userSpaceOnUse" x1="-122.8494" x2="-87.2414" xlink:href="#i" y1="223.03" y2="258.6379"/><path d="m405.355469 476.265625-26.804688-93.230469c-19.71875-68.566406-26.890625-140.132812-21.171875-211.246094l2.296875-28.582031c1.519531-18.929687-.734375-38.050781-7.261719-55.882812-18.65625-50.957031-67.585937-87.324219-125.003906-87.324219h-48.355468c-57.417969 0-106.347657 36.367188-125.003907 87.324219-6.53125 17.832031-8.785156 36.953125-7.261719 55.882812l2.296876 28.582031c5.71875 71.113282-1.453126 142.679688-21.171876 211.246094l-26.804687 93.230469c-5.148437 17.894531 8.285156 35.734375 26.90625 35.734375h350.433594c18.621093 0 32.054687-17.839844 26.90625-35.734375zm0 0" fill="url(#b)"/><path d="m404.542969 494.164062c2.140625-5.464843 2.605469-11.675781.8125-17.898437l-26.804688-93.230469c-16.558593-57.582031-24.265625-117.28125-22.925781-177.050781l-24.332031-24.335937c-1.464844-1.667969-3.066407-3.265626-4.789063-4.789063-12.277344-13.964844-34.089844-23.257813-58.964844-23.257813-28.316406 0-52.65625 12.039063-63.484374 29.300782-.460938-.4375-.9375-.867188-1.417969-1.292969-1.464844-1.664063-3.0625-3.265625-4.789063-4.789063-12.28125-13.941406-34.066406-23.21875-58.921875-23.21875-38.375 0-69.484375 22.101563-69.484375 49.371094 0 11.699219 5.738282 22.4375 15.308594 30.898438 1.464844 1.664062 3.0625 3.265625 4.789062 4.789062l229.851563 229.851563c1.460937 1.664062 3.0625 3.261719 4.785156 4.785156 12.277344 13.964844 34.089844 23.261719 58.96875 23.261719 7.46875 0 14.65625-.84375 21.398438-2.394532zm0 0" fill="url(#d)"/><path d="m267.539062 153.601562c-29.054687 0-53.925781 12.671876-64.308593 30.65625-10.375-17.984374-35.253907-30.65625-64.304688-30.65625-38.375 0-69.484375 22.101563-69.484375 49.371094 0 27.265625 31.109375 49.371094 69.484375 49.371094 15.433594 0 29.6875-3.578125 41.21875-9.625 14.511719-7.617188 31.660157-7.617188 46.175781 0 11.527344 6.050781 25.78125 9.625 41.214844 9.625 38.378906 0 69.488282-22.105469 69.488282-49.371094 0-27.269531-31.109376-49.371094-69.484376-49.371094zm0 0" fill="url(#e)"/><path d="m208.414062 202.972656c0-27.269531-31.113281-49.371094-69.488281-49.371094s-69.484375 22.101563-69.484375 49.371094c0 27.265625 31.109375 49.371094 69.484375 49.371094s69.488281-22.105469 69.488281-49.371094zm0 0" fill="url(#f)"/><path d="m337.023438 202.972656c0-27.269531-31.109376-49.371094-69.484376-49.371094-38.378906 0-69.488281 22.101563-69.488281 49.371094 0 27.265625 31.109375 49.371094 69.488281 49.371094 38.375 0 69.484376-22.105469 69.484376-49.371094zm0 0" fill="url(#g)"/><path d="m378.550781 383.035156c-12.421875-43.191406-19.859375-87.574218-22.238281-132.285156l-104.921875-104.921875c-2.457031-3.230469-5.9375-5.796875-10.34375-7.136719l-6.902344-2.09375c-20.160156-6.121094-41.667969-6.121094-61.824219 0l-6.90625 2.09375c-15.972656 4.851563-19.824218 25.824219-6.625 36.09375l.085938.070313 191.59375 191.609375.085938.070312c1.050781 1.359375 2.289062 2.632813 3.746093 3.765625l26.515625 20.628907zm0 0" fill="url(#h)"/><path d="m185.710938 195.734375-26.921876-20.949219c-13.199218-10.265625-9.347656-31.242187 6.625-36.09375l6.90625-2.09375c20.15625-6.121094 41.664063-6.121094 61.824219 0l6.902344 2.09375c15.976563 4.851563 19.828125 25.824219 6.628906 36.09375l-26.925781 20.949219c-10.316406 8.023437-24.722656 8.023437-35.039062 0zm0 0" fill="url(#j)"/><path d="m125.320312 113.371094c0-13.925782-8.210937-25.214844-18.339843-25.214844-10.128907 0-18.339844 11.289062-18.339844 25.214844 0 13.925781 8.210937 25.214844 18.339844 25.214844 10.128906 0 18.339843-11.289063 18.339843-25.214844zm0 0" fill="url(#k)"/><path d="m317.824219 113.371094c0-13.925782-8.210938-25.214844-18.339844-25.214844s-18.339844 11.289062-18.339844 25.214844c0 13.925781 8.210938 25.214844 18.339844 25.214844s18.339844-11.289063 18.339844-25.214844zm0 0" fill="url(#l)"/><path d="m244.644531 304.542969c-.757812 1.902343-2.597656 3.058593-4.523437 3.058593-.609375 0-1.21875-.109374-1.816406-.339843-.304688-.136719-16.519532-6.582031-38.691407-14.105469-5.351562-1.828125-11.046875-3.703125-16.957031-5.582031-4.28125-1.351563-8.679688-2.707031-13.128906-4.023438l-121.113282-121.113281-.097656-.195312-.816406-10.214844c37.972656 11.007812 72.875 24.90625 73.335938 25.089844 1.207031.472656 2.109374 1.398437 2.609374 2.496093l118.722657 118.710938c2.328125 1.085937 3.4375 3.804687 2.476562 6.21875zm0 0" fill="url(#m)"/><path d="m228.660156 324.742188c-.4375 2.355468-2.484375 4-4.789062 4h-.046875c-.28125 0-.5625-.023438-.84375-.085938-.316407-.0625-23.917969-4.328125-51.417969-4.363281l-93.730469-93.734375-27.066406-27.0625c-.082031-3.351563-.191406-6.714844-.351563-10.070313 11.253907 0 21.808594.683594 30.511719 1.527344 13.054688 1.265625 21.929688 2.875 22.738281 3.019531 1.621094.308594 2.886719 1.378906 3.53125 2.769532l92.417969 92.414062 26.304688 26.296875c1.964843.914063 3.15625 3.058594 2.742187 5.289063zm0 0" fill="url(#n)"/><path d="m236.902344 352.230469c-.402344.074219-33.914063 6.144531-66.378906 20.089843l-120.441407-120.441406c.21875-3.914062.402344-7.824218.535157-11.738281 9.425781-3.828125 18.738281-7.011719 27.210937-9.582031 13.238281-4.035156 24.429687-6.605469 30.769531-7.9375 3.179688-.667969 5.132813-1.011719 5.511719-1.082032 2.21875-.390624 4.339844.789063 5.253906 2.742188l118.722657 118.722656c1.398437.644532 2.472656 1.9375 2.765624 3.570313.476563 2.660156-1.292968 5.183593-3.949218 5.65625zm0 0" fill="url(#o)"/><path d="m119.023438 186.515625c-.601563 0-1.214844-.113281-1.808594-.351563-.605469-.242187-61.109375-24.328124-108.859375-33.878906-2.640625-.527344-4.355469-3.097656-3.824219-5.738281.527344-2.640625 3.097656-4.351563 5.734375-3.824219 48.640625 9.726563 109.957031 34.140625 110.570313 34.386719 2.5 1 3.71875 3.839844 2.71875 6.339844-.765626 1.90625-2.597657 3.066406-4.53125 3.066406zm0 0" fill="url(#p)"/><path d="m102.777344 207.644531c-.292969 0-.59375-.027343-.890625-.082031-.433594-.078125-43.578125-7.90625-81.304688-2.40625-2.675781.390625-5.140625-1.457031-5.53125-4.121094-.386719-2.664062 1.457031-5.140625 4.121094-5.53125 39.359375-5.738281 82.664063 2.132813 84.488281 2.46875 2.648438.492188 4.394532 3.035156 3.90625 5.683594-.4375 2.347656-2.484375 3.988281-4.789062 3.988281zm0 0" fill="url(#q)"/><path d="m26.382812 262.097656c-1.691406 0-3.332031-.878906-4.234374-2.449218-1.339844-2.335938-.535157-5.316407 1.800781-6.65625 38.492187-22.113282 88.070312-31.085938 90.160156-31.457032 2.648437-.464844 5.183594 1.296875 5.65625 3.949219.46875 2.652344-1.300781 5.183594-3.949219 5.652344-.496094.089843-50.023437 9.0625-87.007812 30.308593-.769532.441407-1.601563.652344-2.425782.652344zm0 0" fill="url(#r)"/><path d="m357.378906 171.789062 1.585938-19.761718c-37.980469 11.003906-72.875 24.898437-73.335938 25.082031-2.5 1-3.71875 3.839844-2.71875 6.339844.464844 1.15625 1.324219 2.03125 2.355469 2.546875l71.441406 71.441406c-1.835937-28.472656-1.625-57.097656.671875-85.648438zm0 0" fill="url(#s)"/><path d="m357.074219 262.667969-55.550781-55.550781c-1.328126-.660157-2.339844-1.902344-2.621094-3.464844-.5-2.644532 1.257812-5.191406 3.902344-5.679688 1.339843-.257812 25.113281-4.570312 53.246093-4.558594-.695312 15.578126-.753906 31.171876-.207031 46.726563.269531 7.519531.671875 15.03125 1.230469 22.527344zm0 0" fill="url(#t)"/><path d="m361.390625 302.738281-72.070313-72.070312c-1.875-.9375-3.011718-3.011719-2.621093-5.179688.476562-2.660156 3.011719-4.414062 5.65625-3.949219 1.023437.179688 13.777343 2.484376 31.050781 7.457032 9.789062 2.816406 21.039062 6.5 32.4375 11.144531.269531 7.519531.671875 15.03125 1.230469 22.527344.976562 13.398437 2.414062 26.769531 4.316406 40.070312zm0 0" fill="url(#u)"/><path d="m287.441406 186.515625c.601563 0 1.214844-.113281 1.808594-.351563.605469-.242187 61.109375-24.328124 108.859375-33.878906 2.640625-.527344 4.351563-3.097656 3.824219-5.738281s-3.097656-4.351563-5.738282-3.824219c-48.636718 9.726563-109.953124 34.140625-110.566406 34.386719-2.5 1-3.71875 3.839844-2.71875 6.339844.765625 1.90625 2.59375 3.066406 4.53125 3.066406zm0 0" fill="url(#v)"/><path d="m303.6875 207.644531c.292969 0 .589844-.027343.890625-.082031.429687-.078125 43.578125-7.90625 81.304687-2.40625 2.675782.390625 5.140626-1.457031 5.53125-4.121094.386719-2.664062-1.457031-5.140625-4.121093-5.53125-39.359375-5.738281-82.664063 2.132813-84.488281 2.46875-2.648438.492188-4.398438 3.035156-3.90625 5.683594.433593 2.347656 2.484374 3.988281 4.789062 3.988281zm0 0" fill="url(#w)"/><path d="m380.082031 262.097656c1.691407 0 3.332031-.878906 4.234375-2.449218 1.339844-2.335938.535156-5.316407-1.800781-6.65625-38.492187-22.113282-88.070313-31.085938-90.160156-31.457032-2.648438-.464844-5.183594 1.296875-5.65625 3.949219-.46875 2.652344 1.300781 5.183594 3.949219 5.652344.496093.089843 50.023437 9.0625 87.007812 30.308593.765625.441407 1.601562.652344 2.425781.652344zm0 0" fill="url(#x)"/></svg>