<?xml version="1.0" encoding="utf-8"?>
<!-- Generator: Adobe Illustrator 22.0.0, SVG Export Plug-In . SVG Version: 6.00 Build 0)  -->
<svg version="1.1" id="Capa_1" xmlns="http://www.w3.org/2000/svg" xmlns:xlink="http://www.w3.org/1999/xlink" x="0px" y="0px"
	 viewBox="0 0 512 512" style="enable-background:new 0 0 512 512;" xml:space="preserve">
<style type="text/css">
	.st0{fill:url(#SVGID_1_);}
	.st1{fill:url(#SVGID_2_);}
	.st2{fill:url(#SVGID_3_);}
	.st3{fill:url(#SVGID_4_);}
	.st4{fill:url(#SVGID_5_);}
	.st5{fill:url(#SVGID_6_);}
	.st6{fill:url(#SVGID_7_);}
	.st7{fill:url(#SVGID_8_);}
	.st8{fill:url(#SVGID_9_);}
	.st9{fill:url(#SVGID_10_);}
	.st10{fill:url(#SVGID_11_);}
	.st11{fill:url(#SVGID_12_);}
	.st12{fill:url(#SVGID_13_);}
	.st13{fill:url(#SVGID_14_);}
	.st14{fill:url(#SVGID_15_);}
	.st15{fill:url(#SVGID_16_);}
	.st16{fill:url(#SVGID_17_);}
	.st17{fill:url(#SVGID_18_);}
	.st18{fill:url(#SVGID_19_);}
	.st19{fill:url(#SVGID_20_);}
	.st20{fill:url(#SVGID_21_);}
	.st21{opacity:0.65;fill:none;stroke:#000000;stroke-width:5;stroke-miterlimit:10;}
	.st22{opacity:0.14;}
	.st23{opacity:0.13;}
	.st24{fill:url(#SVGID_22_);}
	.st25{fill:url(#SVGID_23_);}
	.st26{fill:url(#SVGID_24_);}
	.st27{fill:url(#SVGID_25_);}
	.st28{fill:url(#SVGID_26_);}
	.st29{fill:url(#SVGID_27_);}
	.st30{fill:url(#SVGID_28_);}
	.st31{fill:url(#SVGID_29_);}
	.st32{fill:url(#SVGID_30_);}
	.st33{fill:url(#SVGID_31_);}
	.st34{fill:url(#SVGID_32_);}
	.st35{fill:url(#SVGID_33_);}
</style>
<linearGradient id="SVGID_1_" gradientUnits="userSpaceOnUse" x1="153.5529" y1="217.3106" x2="318.1501" y2="133.1831" gradientTransform="matrix(1 0 0 -1 0 512)">
	<stop  offset="0" style="stop-color:#ECF7FF"/>
	<stop  offset="1" style="stop-color:#C2E0FF"/>
</linearGradient>
<path class="st0" d="M404.9,485.7L385.2,417c-14.5-50.5-19.8-103.3-15.6-155.6l1.7-21.1c1.1-13.9-0.5-28-5.4-41.2
	c-13.7-37.5-49.8-64.3-92.1-64.3h-35.6c-42.3,0-78.4,26.8-92.1,64.3c-4.8,13.1-6.5,27.2-5.4,41.2l1.7,21.1
	c4.2,52.4-1.1,105.1-15.6,155.6l-19.7,68.7c-3.8,13.2,6.1,26.3,19.8,26.3h258.2C398.8,512,408.7,498.9,404.9,485.7z"/>
<linearGradient id="SVGID_2_" gradientUnits="userSpaceOnUse" x1="296.6048" y1="87.4865" x2="248.1021" y2="285.0904" gradientTransform="matrix(1 0 0 -1 0 512)">
	<stop  offset="2.900000e-03" style="stop-color:#C2E0FF;stop-opacity:0"/>
	<stop  offset="7.630000e-02" style="stop-color:#BFDCFD;stop-opacity:7.451000e-02"/>
	<stop  offset="1" style="stop-color:#9EB2E7"/>
</linearGradient>
<path class="st1" d="M404.3,498.9c1.6-4,1.9-8.6,0.6-13.2L385.2,417c-12.2-42.4-17.9-86.4-16.9-130.5l-17.9-17.9
	c-1.1-1.2-2.3-2.4-3.5-3.5c-9-10.3-25.1-17.1-43.4-17.1c-20.9,0-38.8,8.9-46.8,21.6c-0.3-0.3-0.7-0.6-1-1c-1.1-1.2-2.3-2.4-3.5-3.5
	c-9-10.3-25.1-17.1-43.4-17.1c-28.3,0-51.2,16.3-51.2,36.4c0,8.6,4.2,16.5,11.3,22.8c1.1,1.2,2.3,2.4,3.5,3.5L341.6,480
	c1.1,1.2,2.3,2.4,3.5,3.5c9,10.3,25.1,17.1,43.4,17.1C394.1,500.6,399.4,500,404.3,498.9z"/>
<linearGradient id="SVGID_3_" gradientUnits="userSpaceOnUse" x1="222.513" y1="297.9502" x2="257.224" y2="225.1251" gradientTransform="matrix(1 0 0 -1 0 512)">
	<stop  offset="0" style="stop-color:#ECF7FF"/>
	<stop  offset="1" style="stop-color:#C2E0FF"/>
</linearGradient>
<path class="st2" d="M303.4,247.9c-21.4,0-39.7,9.3-47.4,22.6c-7.6-13.3-26-22.6-47.4-22.6c-28.3,0-51.2,16.3-51.2,36.4
	c0,20.1,22.9,36.4,51.2,36.4c11.4,0,21.9-2.6,30.4-7.1c10.7-5.6,23.3-5.6,34,0c8.5,4.5,19,7.1,30.4,7.1c28.3,0,51.2-16.3,51.2-36.4
	C354.6,264.2,331.7,247.9,303.4,247.9z"/>
<linearGradient id="SVGID_4_" gradientUnits="userSpaceOnUse" x1="194.2971" y1="251.6272" x2="228.4286" y2="194.5916" gradientTransform="matrix(1 0 0 -1 0 512)">
	<stop  offset="0" style="stop-color:#ECF7FF"/>
	<stop  offset="1" style="stop-color:#C2E0FF"/>
</linearGradient>
<path class="st3" d="M259.8,284.3c0-20.1-22.9-36.4-51.2-36.4s-51.2,16.3-51.2,36.4c0,20.1,22.9,36.4,51.2,36.4
	S259.8,304.4,259.8,284.3z"/>
<linearGradient id="SVGID_5_" gradientUnits="userSpaceOnUse" x1="281.2835" y1="274.0523" x2="304.1876" y2="225.9986" gradientTransform="matrix(1 0 0 -1 0 512)">
	<stop  offset="0" style="stop-color:#ECF7FF"/>
	<stop  offset="1" style="stop-color:#C2E0FF"/>
</linearGradient>
<path class="st4" d="M354.6,284.3c0-20.1-22.9-36.4-51.2-36.4c-28.3,0-51.2,16.3-51.2,36.4c0,20.1,22.9,36.4,51.2,36.4
	C331.7,320.7,354.6,304.4,354.6,284.3z"/>
<linearGradient id="SVGID_6_" gradientUnits="userSpaceOnUse" x1="310.8045" y1="205.7019" x2="240.8994" y2="275.6068" gradientTransform="matrix(1 0 0 -1 0 512)">
	<stop  offset="2.900000e-03" style="stop-color:#C2E0FF;stop-opacity:0"/>
	<stop  offset="7.630000e-02" style="stop-color:#BFDCFD;stop-opacity:7.451000e-02"/>
	<stop  offset="1" style="stop-color:#9EB2E7"/>
</linearGradient>
<path class="st5" d="M385.2,417c-9.2-31.8-14.6-64.5-16.4-97.5l-77.3-77.3c-1.8-2.4-4.4-4.3-7.6-5.3l-5.1-1.5
	c-14.9-4.5-30.7-4.5-45.6,0l-5.1,1.5c-11.8,3.6-14.6,19-4.9,26.6l0.1,0.1l141.2,141.2l0.1,0.1c0.8,1,1.7,1.9,2.8,2.8l19.5,15.2
	L385.2,417z"/>
<linearGradient id="SVGID_7_" gradientUnits="userSpaceOnUse" x1="237.9391" y1="278.5701" x2="271.583" y2="244.9263" gradientTransform="matrix(1 0 0 -1 0 512)">
	<stop  offset="0" style="stop-color:#45425A"/>
	<stop  offset="1" style="stop-color:#2D3251"/>
</linearGradient>
<path class="st6" d="M243.1,279l-19.8-15.4c-9.7-7.6-6.9-23,4.9-26.6l5.1-1.5c14.9-4.5,30.7-4.5,45.6,0l5.1,1.5
	c11.8,3.6,14.6,19,4.9,26.6L268.9,279C261.3,284.9,250.7,284.9,243.1,279z"/>
<linearGradient id="SVGID_8_" gradientUnits="userSpaceOnUse" x1="172.3651" y1="306.4274" x2="197.3613" y2="281.4312" gradientTransform="matrix(1 0 0 -1 0 512)">
	<stop  offset="0" style="stop-color:#45425A"/>
	<stop  offset="1" style="stop-color:#2D3251"/>
</linearGradient>
<path class="st7" d="M198.6,218.3c0-10.3-6-18.6-13.5-18.6c-7.5,0-13.5,8.3-13.5,18.6c0,10.3,6,18.6,13.5,18.6
	C192.5,236.9,198.6,228.5,198.6,218.3z"/>
<linearGradient id="SVGID_9_" gradientUnits="userSpaceOnUse" x1="314.2029" y1="306.4272" x2="339.1991" y2="281.431" gradientTransform="matrix(1 0 0 -1 0 512)">
	<stop  offset="0" style="stop-color:#45425A"/>
	<stop  offset="1" style="stop-color:#2D3251"/>
</linearGradient>
<path class="st8" d="M340.4,218.3c0-10.3-6-18.6-13.5-18.6s-13.5,8.3-13.5,18.6c0,10.3,6,18.6,13.5,18.6S340.4,228.5,340.4,218.3z"
	/>
<linearGradient id="SVGID_10_" gradientUnits="userSpaceOnUse" x1="205.5229" y1="234.0682" x2="182.4691" y2="307.1218" gradientTransform="matrix(1 0 0 -1 0 512)">
	<stop  offset="2.900000e-03" style="stop-color:#C2E0FF;stop-opacity:0"/>
	<stop  offset="7.630000e-02" style="stop-color:#BFDCFD;stop-opacity:7.451000e-02"/>
	<stop  offset="1" style="stop-color:#9EB2E7"/>
</linearGradient>
<path class="st9" d="M286.5,359.1c-0.6,1.4-1.9,2.3-3.3,2.3c-0.4,0-0.9-0.1-1.3-0.3c-0.2-0.1-12.2-4.8-28.5-10.4
	c-3.9-1.3-8.1-2.7-12.5-4.1c-3.2-1-6.4-2-9.7-3l-89.2-89.2l-0.1-0.1l-0.6-7.5c28,8.1,53.7,18.4,54,18.5c0.9,0.3,1.6,1,1.9,1.8
	l87.5,87.5C286.4,355.4,287.2,357.4,286.5,359.1z"/>
<linearGradient id="SVGID_11_" gradientUnits="userSpaceOnUse" x1="197.256" y1="212.9562" x2="172.1064" y2="275.2314" gradientTransform="matrix(1 0 0 -1 0 512)">
	<stop  offset="2.900000e-03" style="stop-color:#C2E0FF;stop-opacity:0"/>
	<stop  offset="7.630000e-02" style="stop-color:#BFDCFD;stop-opacity:7.451000e-02"/>
	<stop  offset="1" style="stop-color:#9EB2E7"/>
</linearGradient>
<path class="st10" d="M274.7,374c-0.3,1.7-1.8,2.9-3.5,2.9h0c-0.2,0-0.4,0-0.6-0.1c-0.2,0-17.6-3.2-37.9-3.2l-69.1-69.1l-19.9-19.9
	c-0.1-2.5-0.1-4.9-0.3-7.4c8.3,0,16.1,0.5,22.5,1.1c9.6,0.9,16.2,2.1,16.8,2.2c1.2,0.2,2.1,1,2.6,2l68.1,68.1l19.4,19.4
	C274.2,370.8,275,372.4,274.7,374z"/>
<linearGradient id="SVGID_12_" gradientUnits="userSpaceOnUse" x1="201.1177" y1="181.5772" x2="170.8784" y2="242.056" gradientTransform="matrix(1 0 0 -1 0 512)">
	<stop  offset="2.900000e-03" style="stop-color:#C2E0FF;stop-opacity:0"/>
	<stop  offset="7.630000e-02" style="stop-color:#BFDCFD;stop-opacity:7.451000e-02"/>
	<stop  offset="1" style="stop-color:#9EB2E7"/>
</linearGradient>
<path class="st11" d="M280.8,394.3c-0.3,0.1-25,4.5-48.9,14.8l-88.7-88.7c0.2-2.9,0.3-5.8,0.4-8.6c6.9-2.8,13.8-5.2,20-7.1
	c9.8-3,18-4.9,22.7-5.8c2.3-0.5,3.8-0.7,4.1-0.8c1.6-0.3,3.2,0.6,3.9,2l87.5,87.5c1,0.5,1.8,1.4,2,2.6
	C284.1,392.1,282.8,393.9,280.8,394.3z"/>
<linearGradient id="SVGID_13_" gradientUnits="userSpaceOnUse" x1="124.5" y1="285.0248" x2="182.5754" y2="226.9494" gradientTransform="matrix(1 0 0 -1 0 512)">
	<stop  offset="0" style="stop-color:#45425A"/>
	<stop  offset="1" style="stop-color:#2D3251"/>
</linearGradient>
<path class="st12" d="M194,272.2c-0.4,0-0.9-0.1-1.3-0.3c-0.4-0.2-45-17.9-80.2-25c-1.9-0.4-3.2-2.3-2.8-4.2
	c0.4-1.9,2.3-3.2,4.2-2.8c35.8,7.2,81,25.2,81.5,25.3c1.8,0.7,2.7,2.8,2,4.7C196.7,271.3,195.4,272.2,194,272.2z"/>
<linearGradient id="SVGID_14_" gradientUnits="userSpaceOnUse" x1="133.182" y1="246.9995" x2="169.6994" y2="210.482" gradientTransform="matrix(1 0 0 -1 0 512)">
	<stop  offset="0" style="stop-color:#45425A"/>
	<stop  offset="1" style="stop-color:#2D3251"/>
</linearGradient>
<path class="st13" d="M182,287.7c-0.2,0-0.4,0-0.7-0.1c-0.3-0.1-32.1-5.8-59.9-1.8c-2,0.3-3.8-1.1-4.1-3c-0.3-2,1.1-3.8,3-4.1
	c29-4.2,60.9,1.6,62.3,1.8c2,0.4,3.2,2.2,2.9,4.2C185.2,286.5,183.7,287.7,182,287.7z"/>
<linearGradient id="SVGID_15_" gradientUnits="userSpaceOnUse" x1="145.157" y1="212.2695" x2="171.4964" y2="185.9302" gradientTransform="matrix(1 0 0 -1 0 512)">
	<stop  offset="0" style="stop-color:#45425A"/>
	<stop  offset="1" style="stop-color:#2D3251"/>
</linearGradient>
<path class="st14" d="M125.7,327.9c-1.2,0-2.5-0.6-3.1-1.8c-1-1.7-0.4-3.9,1.3-4.9c28.4-16.3,64.9-22.9,66.4-23.2
	c2-0.3,3.8,1,4.2,2.9c0.3,2-1,3.8-2.9,4.2c-0.4,0.1-36.9,6.7-64.1,22.3C126.9,327.7,126.3,327.9,125.7,327.9z"/>
<linearGradient id="SVGID_16_" gradientUnits="userSpaceOnUse" x1="359.924" y1="213.0643" x2="337.4689" y2="266.0581" gradientTransform="matrix(1 0 0 -1 0 512)">
	<stop  offset="2.900000e-03" style="stop-color:#C2E0FF;stop-opacity:0"/>
	<stop  offset="7.630000e-02" style="stop-color:#BFDCFD;stop-opacity:7.451000e-02"/>
	<stop  offset="1" style="stop-color:#9EB2E7"/>
</linearGradient>
<path class="st15" d="M369.6,261.3l1.2-14.6c-28,8.1-53.7,18.3-54,18.5c-1.8,0.7-2.7,2.8-2,4.7c0.3,0.9,1,1.5,1.7,1.9l52.6,52.6
	C367.7,303.5,367.9,282.4,369.6,261.3z"/>
<linearGradient id="SVGID_17_" gradientUnits="userSpaceOnUse" x1="357.1935" y1="207.3716" x2="345.2924" y2="236.3386" gradientTransform="matrix(1 0 0 -1 0 512)">
	<stop  offset="2.900000e-03" style="stop-color:#C2E0FF;stop-opacity:0"/>
	<stop  offset="7.630000e-02" style="stop-color:#BFDCFD;stop-opacity:7.451000e-02"/>
	<stop  offset="1" style="stop-color:#9EB2E7"/>
</linearGradient>
<path class="st16" d="M369.4,328.3l-40.9-40.9c-1-0.5-1.7-1.4-1.9-2.6c-0.4-1.9,0.9-3.8,2.9-4.2c1-0.2,18.5-3.4,39.2-3.4
	c-0.5,11.5-0.6,23-0.2,34.4C368.6,317.2,368.9,322.8,369.4,328.3z"/>
<linearGradient id="SVGID_18_" gradientUnits="userSpaceOnUse" x1="353.3162" y1="179.2217" x2="330.4121" y2="236.2573" gradientTransform="matrix(1 0 0 -1 0 512)">
	<stop  offset="2.900000e-03" style="stop-color:#C2E0FF;stop-opacity:0"/>
	<stop  offset="7.630000e-02" style="stop-color:#BFDCFD;stop-opacity:7.451000e-02"/>
	<stop  offset="1" style="stop-color:#9EB2E7"/>
</linearGradient>
<path class="st17" d="M372.5,357.8l-53.1-53.1c-1.4-0.7-2.2-2.2-1.9-3.8c0.4-2,2.2-3.3,4.2-2.9c0.8,0.1,10.2,1.8,22.9,5.5
	c7.2,2.1,15.5,4.8,23.9,8.2c0.2,5.5,0.5,11.1,0.9,16.6C370.1,338.2,371.1,348,372.5,357.8z"/>
<linearGradient id="SVGID_19_" gradientUnits="userSpaceOnUse" x1="154.8433" y1="285.3022" x2="212.692" y2="227.4534" gradientTransform="matrix(-1.0039 0 0 -1.0039 542.9503 513.3962)">
	<stop  offset="0" style="stop-color:#45425A"/>
	<stop  offset="1" style="stop-color:#2D3251"/>
</linearGradient>
<path class="st18" d="M318,272.2c0.4,0,0.9-0.1,1.3-0.3c0.4-0.2,45-17.9,80.2-25c1.9-0.4,3.2-2.3,2.8-4.2c-0.4-1.9-2.3-3.2-4.2-2.8
	c-35.8,7.2-81,25.2-81.5,25.3c-1.8,0.7-2.7,2.8-2,4.7C315.3,271.3,316.6,272.2,318,272.2z"/>
<linearGradient id="SVGID_20_" gradientUnits="userSpaceOnUse" x1="163.4913" y1="247.4255" x2="199.8667" y2="211.0501" gradientTransform="matrix(-1.0039 0 0 -1.0039 542.9503 513.3962)">
	<stop  offset="0" style="stop-color:#45425A"/>
	<stop  offset="1" style="stop-color:#2D3251"/>
</linearGradient>
<path class="st19" d="M330,287.7c0.2,0,0.4,0,0.7-0.1c0.3-0.1,32.1-5.8,59.9-1.8c2,0.3,3.8-1.1,4.1-3c0.3-2-1.1-3.8-3-4.1
	c-29-4.2-60.9,1.6-62.3,1.8c-2,0.4-3.2,2.2-2.9,4.2C326.8,286.5,328.3,287.7,330,287.7z"/>
<linearGradient id="SVGID_21_" gradientUnits="userSpaceOnUse" x1="175.4193" y1="212.831" x2="201.6558" y2="186.5946" gradientTransform="matrix(-1.0039 0 0 -1.0039 542.9503 513.3962)">
	<stop  offset="0" style="stop-color:#45425A"/>
	<stop  offset="1" style="stop-color:#2D3251"/>
</linearGradient>
<path class="st20" d="M386.3,327.9c1.2,0,2.5-0.6,3.1-1.8c1-1.7,0.4-3.9-1.3-4.9c-28.4-16.3-64.9-22.9-66.4-23.2
	c-2-0.3-3.8,1-4.2,2.9c-0.3,2,1,3.8,2.9,4.2c0.4,0.1,36.9,6.7,64.1,22.3C385.1,327.7,385.7,327.9,386.3,327.9z"/>
<circle class="st21" cx="190.3" cy="218.3" r="26.3"/>
<circle class="st21" cx="326.9" cy="218.3" r="26.3"/>
<path class="st21" d="M216.5,218.3c8-3.6,22.9-9.2,42.3-9.1c19.2,0,33.9,5.5,41.9,9.1"/>
<line class="st21" x1="164" y1="215.1" x2="151.4" y2="195.2"/>
<line class="st21" x1="354.6" y1="213.6" x2="364.2" y2="194.8"/>
<g class="st22">
	<image style="overflow:visible;" width="120" height="121" xlink:href="688D5D20.png"  transform="matrix(1 0 0 1 130.2573 158)">
	</image>
</g>
<g class="st23">
	<image style="overflow:visible;" width="121" height="121" xlink:href="688D5D21.png"  transform="matrix(1 0 0 1 266.2573 158)">
	</image>
</g>
<g>
	
		<linearGradient id="SVGID_22_" gradientUnits="userSpaceOnUse" x1="225.6078" y1="240.7997" x2="225.6078" y2="256.8469" gradientTransform="matrix(0.9955 0.1294 0.1294 -0.9955 -78.8262 330.0902)">
		<stop  offset="0" style="stop-color:#FF7044"/>
		<stop  offset="1" style="stop-color:#F92814"/>
	</linearGradient>
	<path class="st24" d="M174.4,139.4c-2-0.3-3.4-2.1-3.2-4.1l5.8-44.9l7.2,0.9l-5.8,44.9C178.2,138.3,176.4,139.7,174.4,139.4z"/>
	
		<linearGradient id="SVGID_23_" gradientUnits="userSpaceOnUse" x1="220.8435" y1="195.638" x2="246.8162" y2="196.2353" gradientTransform="matrix(0.9955 0.1294 0.1294 -0.9955 -78.8262 330.0902)">
		<stop  offset="0" style="stop-color:#FF7044"/>
		<stop  offset="1" style="stop-color:#F92814"/>
	</linearGradient>
	<path class="st25" d="M178.3,184.3c-0.7,5.2-19.4,2.7-18.7-2.4c0.7-5.2,9.6-40.7,14.7-40C179.5,142.6,179,179.2,178.3,184.3z"/>
	
		<linearGradient id="SVGID_24_" gradientUnits="userSpaceOnUse" x1="230.7894" y1="197.0318" x2="213.2926" y2="188.9974" gradientTransform="matrix(0.9955 0.1294 0.1294 -0.9955 -78.8262 330.0902)">
		<stop  offset="0" style="stop-color:#FF7044;stop-opacity:0"/>
		<stop  offset="0.2503" style="stop-color:#FF813A;stop-opacity:0.25"/>
		<stop  offset="0.7194" style="stop-color:#FF9A2B;stop-opacity:0.719"/>
		<stop  offset="1" style="stop-color:#FFA425"/>
	</linearGradient>
	<path class="st26" d="M178.3,184.3c-0.2,1.7-2.5,2.6-5.3,2.8c-2.8,0.2-6.3-0.2-8.9-1.2c-0.4-0.6-0.5-1.4-0.4-2.2
		c0.7-5.3,7.7-41.7,10.6-41.9c0,0,0,0,0.1,0c0,0,0,0,0.1,0C179.5,142.9,179,179.2,178.3,184.3L178.3,184.3z"/>
	
		<linearGradient id="SVGID_25_" gradientUnits="userSpaceOnUse" x1="220.4077" y1="193.2998" x2="250.9123" y2="205.154" gradientTransform="matrix(0.9955 0.1294 0.1294 -0.9955 -78.8262 330.0902)">
		<stop  offset="0" style="stop-color:#F92814;stop-opacity:0"/>
		<stop  offset="1" style="stop-color:#C1272D"/>
	</linearGradient>
	<path class="st27" d="M175.2,183.9c-0.3,2.5-3.3,3.4-6.3,3.1c-0.3,0-0.6-0.1-0.9-0.1c-4.5-0.7-8.7-2.5-8.4-5
		c0.7-5.1,9.5-40.3,14.7-40c0,0,0.1,0,0.1,0c0,0,0.1,0,0.1,0C177.7,142.9,175.9,178.8,175.2,183.9z"/>
	
		<linearGradient id="SVGID_26_" gradientUnits="userSpaceOnUse" x1="222.4172" y1="224.2692" x2="234.2814" y2="212.4055" gradientTransform="matrix(0.9955 0.1294 0.1294 -0.9955 -78.8262 330.0902)">
		<stop  offset="0" style="stop-color:#92F37F"/>
		<stop  offset="1" style="stop-color:#4AB272"/>
	</linearGradient>
	<circle class="st28" cx="174.6" cy="139.5" r="9.2"/>
	
		<linearGradient id="SVGID_27_" gradientUnits="userSpaceOnUse" x1="226.7573" y1="219.9292" x2="218.4678" y2="228.2188" gradientTransform="matrix(0.9955 0.1294 0.1294 -0.9955 -78.8262 330.0902)">
		<stop  offset="0" style="stop-color:#92F37F;stop-opacity:0"/>
		<stop  offset="1" style="stop-color:#FFEE83"/>
	</linearGradient>
	<circle class="st29" cx="174.6" cy="139.5" r="7.7"/>
	
		<linearGradient id="SVGID_28_" gradientUnits="userSpaceOnUse" x1="226.1627" y1="217.3311" x2="238.7534" y2="240.7487" gradientTransform="matrix(0.9955 0.1294 0.1294 -0.9955 -78.8262 330.0902)">
		<stop  offset="0" style="stop-color:#4AB272;stop-opacity:0"/>
		<stop  offset="1" style="stop-color:#009245"/>
	</linearGradient>
	<path class="st30" d="M179.7,131.8c0.5,1.3,0.6,2.7,0.4,4.2c-0.7,5-5.3,8.6-10.3,7.9c-1.5-0.2-2.8-0.7-4-1.5
		c1.1,3.2,3.9,5.6,7.5,6.1c5,0.7,9.7-2.9,10.3-7.9C184.2,137.1,182.5,133.7,179.7,131.8L179.7,131.8z"/>
	
		<linearGradient id="SVGID_29_" gradientUnits="userSpaceOnUse" x1="323.5269" y1="377.3145" x2="323.5269" y2="315.6313" gradientTransform="matrix(0.9955 0.1294 -0.1294 0.9955 1.8605 -290.5011)">
		<stop  offset="0" style="stop-color:#7E8595"/>
		<stop  offset="1" style="stop-color:#555A66"/>
	</linearGradient>
	<path class="st31" d="M399.6,123.3c-0.1,1-0.7,1.9-1.6,2.1L282.7,148c-6.9,1.4-13.9,0.4-20.2-2.6L156.7,94.1
		c-0.9-0.4-1.2-1.5-1.1-2.4l1-7.4c0.1-1,0.7-1.9,1.6-2.1l115.3-22.6c6.9-1.4,13.9-0.4,20.2,2.6l105.7,51.3c0.9,0.4,1.2,1.5,1.1,2.4
		L399.6,123.3L399.6,123.3z"/>
	
		<linearGradient id="SVGID_30_" gradientUnits="userSpaceOnUse" x1="295.8904" y1="395.3878" x2="354.4198" y2="315.7398" gradientTransform="matrix(0.9955 0.1294 -0.1294 0.9955 1.8605 -290.5011)">
		<stop  offset="0" style="stop-color:#7E8595"/>
		<stop  offset="1" style="stop-color:#555A66"/>
	</linearGradient>
	<path class="st32" d="M262.4,145.4L156.7,94.1c-1.7-0.8-1.3-4,0.6-4.4l115.3-22.6c6.9-1.4,13.9-0.4,20.2,2.6l105.7,51.3
		c1.7,0.8,1.3,4-0.6,4.4L282.7,148C275.7,149.4,268.8,148.5,262.4,145.4L262.4,145.4z"/>
	
		<linearGradient id="SVGID_31_" gradientUnits="userSpaceOnUse" x1="323.3018" y1="355.726" x2="308.4547" y2="506.3799" gradientTransform="matrix(0.9955 0.1294 -0.1294 0.9955 1.8605 -290.5011)">
		<stop  offset="0" style="stop-color:#BEC3D2;stop-opacity:0"/>
		<stop  offset="0.5577" style="stop-color:#D4D9E4;stop-opacity:0.558"/>
		<stop  offset="1" style="stop-color:#E9EDF5"/>
	</linearGradient>
	<path class="st33" d="M264.6,137.1l-94.5-45.9c-1.5-0.8-1.2-3.6,0.5-3.9L273.7,67c6.2-1.2,12.4-0.4,18.1,2.4l94.5,45.9
		c1.5,0.8,1.2,3.6-0.5,3.9l-103.1,20.2C276.5,140.6,270.3,139.8,264.6,137.1z"/>
	
		<linearGradient id="SVGID_32_" gradientUnits="userSpaceOnUse" x1="277.4276" y1="268.0641" x2="355.7582" y2="225.5887" gradientTransform="matrix(0.9955 0.1294 0.1294 -0.9955 -78.8262 330.0902)">
		<stop  offset="0" style="stop-color:#7E8595"/>
		<stop  offset="1" style="stop-color:#555A66"/>
	</linearGradient>
	<path class="st34" d="M358.9,134c-1.9,13.8-3.7,27.7-5.6,41.5c-6.8-4.1-17.4-9.7-31.4-13.5c-8.7-2.4-16.8-3.5-54-4
		c-34-0.5-43,0.3-57-5c-10.1-3.8-17.6-8.8-22.4-12.3c1.2-9.4,2.5-18.9,3.7-28.3c1.3-10.2,8.7-18.5,18.7-20.9c22.9-5.7,46.4-7,69.3-4
		c22.9,3,45.3,10.2,66,21.6c1.6,0.9,3.1,1.9,4.4,3.1c1.1,0.9,3.8,3.5,5.8,7.5C359.6,125.6,359.2,131.5,358.9,134z"/>
	
		<linearGradient id="SVGID_33_" gradientUnits="userSpaceOnUse" x1="298.5132" y1="264.1169" x2="191.1901" y2="332.7045" gradientTransform="matrix(0.9955 0.1294 0.1294 -0.9955 -78.8262 330.0902)">
		<stop  offset="0" style="stop-color:#BEC3D2;stop-opacity:0"/>
		<stop  offset="0.5577" style="stop-color:#D4D9E4;stop-opacity:0.558"/>
		<stop  offset="1" style="stop-color:#E9EDF5"/>
	</linearGradient>
	<path class="st35" d="M355.2,162.3l3.7-28.3c0.7-5.1-0.3-10.1-2.5-14.5c-2.2-4.4-5.7-8.1-10.2-10.6c-20.6-11.4-43-18.6-66-21.6
		c-17-2.2-34.3-2.1-51.5,0.5c-9,3.8-15.5,12.1-16.8,22l-4.1,31.5c-1.2,9.2,31.6,21.2,75.7,28.3C323.2,173.4,354.2,170.5,355.2,162.3
		L355.2,162.3z"/>
</g>
</svg>
