<?xml version="1.0" encoding="utf-8"?>
<!-- Generator: Adobe Illustrator 22.0.0, SVG Export Plug-In . SVG Version: 6.00 Build 0)  -->
<svg version="1.1" id="Capa_1" xmlns="http://www.w3.org/2000/svg" xmlns:xlink="http://www.w3.org/1999/xlink" x="0px" y="0px"
	 viewBox="0 0 512 512" style="enable-background:new 0 0 512 512;" xml:space="preserve">
<style type="text/css">
	.st0{fill:url(#SVGID_1_);}
	.st1{fill:url(#SVGID_2_);}
	.st2{fill:url(#SVGID_3_);}
	.st3{fill:url(#SVGID_4_);}
	.st4{fill:url(#SVGID_5_);}
	.st5{fill:url(#SVGID_6_);}
	.st6{fill:url(#SVGID_7_);}
	.st7{fill:url(#SVGID_8_);}
	.st8{fill:url(#SVGID_9_);}
	.st9{fill:url(#SVGID_10_);}
	.st10{fill:url(#SVGID_11_);}
	.st11{fill:url(#SVGID_12_);}
	.st12{fill:url(#SVGID_13_);}
	.st13{fill:url(#SVGID_14_);}
	.st14{fill:url(#SVGID_15_);}
	.st15{fill:url(#SVGID_16_);}
	.st16{fill:url(#SVGID_17_);}
	.st17{fill:url(#SVGID_18_);}
	.st18{fill:url(#SVGID_19_);}
	.st19{fill:url(#SVGID_20_);}
	.st20{fill:url(#SVGID_21_);}
	.st21{fill:#477B9E;}
	.st22{fill:#3F6D8E;}
	.st23{fill:#365E7D;}
	.st24{fill:#B5DCFF;}
	.st25{fill:#8BCAFF;}
	.st26{fill:#DBEDFF;}
	.st27{fill:#294B64;}
	.st28{fill:#7FB3FA;}
	.st29{fill:#64A6F4;}
	.st30{fill:#3D8BD8;}
	.st31{fill:#9CC5FA;}
</style>
<linearGradient id="SVGID_1_" gradientUnits="userSpaceOnUse" x1="117.1898" y1="294.9368" x2="340.5833" y2="180.7579" gradientTransform="matrix(1 0 0 -1 0 512)">
	<stop  offset="0" style="stop-color:#ECF7FF"/>
	<stop  offset="1" style="stop-color:#C2E0FF"/>
</linearGradient>
<path class="st0" d="M458.4,476.3L431.6,383c-19.7-68.6-26.9-140.1-21.2-211.2l2.3-28.6c1.5-18.9-0.7-38.1-7.3-55.9
	C386.8,36.4,337.8,0,280.4,0h-48.4c-57.4,0-106.3,36.4-125,87.3c-6.5,17.8-8.8,37-7.3,55.9l2.3,28.6c5.7,71.1-1.5,142.7-21.2,211.2
	l-26.8,93.2C49,494.2,62.4,512,81,512h350.4C450.1,512,463.5,494.2,458.4,476.3z"/>
<linearGradient id="SVGID_2_" gradientUnits="userSpaceOnUse" x1="311.3418" y1="118.7379" x2="245.5132" y2="386.9286" gradientTransform="matrix(1 0 0 -1 0 512)">
	<stop  offset="2.900000e-03" style="stop-color:#C2E0FF;stop-opacity:0"/>
	<stop  offset="7.630000e-02" style="stop-color:#BFDCFD;stop-opacity:7.451000e-02"/>
	<stop  offset="1" style="stop-color:#9EB2E7"/>
</linearGradient>
<path class="st1" d="M457.5,494.2c2.1-5.5,2.6-11.7,0.8-17.9L431.6,383C415,325.5,407.3,265.8,408.6,206l-24.3-24.3
	c-1.5-1.7-3.1-3.3-4.8-4.8c-12.3-14-34.1-23.3-59-23.3c-28.3,0-52.7,12-63.5,29.3c-0.5-0.4-0.9-0.9-1.4-1.3
	c-1.5-1.7-3.1-3.3-4.8-4.8c-12.3-13.9-34.1-23.2-58.9-23.2c-38.4,0-69.5,22.1-69.5,49.4c0,11.7,5.7,22.4,15.3,30.9
	c1.5,1.7,3.1,3.3,4.8,4.8l229.9,229.9c1.5,1.7,3.1,3.3,4.8,4.8c12.3,14,34.1,23.3,59,23.3C443.6,496.6,450.8,495.7,457.5,494.2z"/>
<linearGradient id="SVGID_3_" gradientUnits="userSpaceOnUse" x1="210.7834" y1="404.382" x2="257.8936" y2="305.5428" gradientTransform="matrix(1 0 0 -1 0 512)">
	<stop  offset="0" style="stop-color:#ECF7FF"/>
	<stop  offset="1" style="stop-color:#C2E0FF"/>
</linearGradient>
<path class="st2" d="M320.5,153.6c-29.1,0-53.9,12.7-64.3,30.7c-10.4-18-35.3-30.7-64.3-30.7c-38.4,0-69.5,22.1-69.5,49.4
	c0,27.3,31.1,49.4,69.5,49.4c15.4,0,29.7-3.6,41.2-9.6c14.5-7.6,31.7-7.6,46.2,0c11.5,6.1,25.8,9.6,41.2,9.6
	c38.4,0,69.5-22.1,69.5-49.4C390,175.7,358.9,153.6,320.5,153.6z"/>
<linearGradient id="SVGID_4_" gradientUnits="userSpaceOnUse" x1="172.4884" y1="341.5118" x2="218.8122" y2="264.1023" gradientTransform="matrix(1 0 0 -1 0 512)">
	<stop  offset="0" style="stop-color:#ECF7FF"/>
	<stop  offset="1" style="stop-color:#C2E0FF"/>
</linearGradient>
<path class="st3" d="M261.4,203c0-27.3-31.1-49.4-69.5-49.4s-69.5,22.1-69.5,49.4c0,27.3,31.1,49.4,69.5,49.4S261.4,230.2,261.4,203
	z"/>
<linearGradient id="SVGID_5_" gradientUnits="userSpaceOnUse" x1="290.5475" y1="371.9474" x2="321.6333" y2="306.7284" gradientTransform="matrix(1 0 0 -1 0 512)">
	<stop  offset="0" style="stop-color:#ECF7FF"/>
	<stop  offset="1" style="stop-color:#C2E0FF"/>
</linearGradient>
<path class="st4" d="M390,203c0-27.3-31.1-49.4-69.5-49.4c-38.4,0-69.5,22.1-69.5,49.4c0,27.3,31.1,49.4,69.5,49.4
	C358.9,252.3,390,230.2,390,203z"/>
<linearGradient id="SVGID_6_" gradientUnits="userSpaceOnUse" x1="330.6138" y1="279.1813" x2="235.7377" y2="374.0573" gradientTransform="matrix(1 0 0 -1 0 512)">
	<stop  offset="2.900000e-03" style="stop-color:#C2E0FF;stop-opacity:0"/>
	<stop  offset="7.630000e-02" style="stop-color:#BFDCFD;stop-opacity:7.451000e-02"/>
	<stop  offset="1" style="stop-color:#9EB2E7"/>
</linearGradient>
<path class="st5" d="M431.6,383c-12.4-43.2-19.9-87.6-22.2-132.3L304.4,145.8c-2.5-3.2-5.9-5.8-10.3-7.1l-6.9-2.1
	c-20.2-6.1-41.7-6.1-61.8,0l-6.9,2.1c-16,4.9-19.8,25.8-6.6,36.1l0.1,0.1l191.6,191.6l0.1,0.1c1.1,1.4,2.3,2.6,3.7,3.8l26.5,20.6
	L431.6,383z"/>
<linearGradient id="SVGID_7_" gradientUnits="userSpaceOnUse" x1="231.72" y1="378.0791" x2="277.3819" y2="332.4172" gradientTransform="matrix(1 0 0 -1 0 512)">
	<stop  offset="0" style="stop-color:#45425A"/>
	<stop  offset="1" style="stop-color:#2D3251"/>
</linearGradient>
<path class="st6" d="M238.7,195.7l-26.9-20.9c-13.2-10.3-9.3-31.2,6.6-36.1l6.9-2.1c20.2-6.1,41.7-6.1,61.8,0l6.9,2.1
	c16,4.9,19.8,25.8,6.6,36.1l-26.9,20.9C263.4,203.8,249,203.8,238.7,195.7z"/>
<linearGradient id="SVGID_8_" gradientUnits="userSpaceOnUse" x1="142.722" y1="415.8874" x2="176.6471" y2="381.9622" gradientTransform="matrix(1 0 0 -1 0 512)">
	<stop  offset="0" style="stop-color:#45425A"/>
	<stop  offset="1" style="stop-color:#2D3251"/>
</linearGradient>
<path class="st7" d="M178.3,113.4c0-13.9-8.2-25.2-18.3-25.2s-18.3,11.3-18.3,25.2s8.2,25.2,18.3,25.2S178.3,127.3,178.3,113.4z"/>
<linearGradient id="SVGID_9_" gradientUnits="userSpaceOnUse" x1="335.2262" y1="415.8871" x2="369.1514" y2="381.9619" gradientTransform="matrix(1 0 0 -1 0 512)">
	<stop  offset="0" style="stop-color:#45425A"/>
	<stop  offset="1" style="stop-color:#2D3251"/>
</linearGradient>
<path class="st8" d="M370.8,113.4c0-13.9-8.2-25.2-18.3-25.2s-18.3,11.3-18.3,25.2s8.2,25.2,18.3,25.2S370.8,127.3,370.8,113.4z"/>
<linearGradient id="SVGID_10_" gradientUnits="userSpaceOnUse" x1="187.7242" y1="317.6805" x2="156.4353" y2="416.8298" gradientTransform="matrix(1 0 0 -1 0 512)">
	<stop  offset="2.900000e-03" style="stop-color:#C2E0FF;stop-opacity:0"/>
	<stop  offset="7.630000e-02" style="stop-color:#BFDCFD;stop-opacity:7.451000e-02"/>
	<stop  offset="1" style="stop-color:#9EB2E7"/>
</linearGradient>
<path class="st9" d="M297.6,304.5c-0.8,1.9-2.6,3.1-4.5,3.1c-0.6,0-1.2-0.1-1.8-0.3c-0.3-0.1-16.5-6.6-38.7-14.1
	c-5.4-1.8-11-3.7-17-5.6c-4.3-1.4-8.7-2.7-13.1-4L101.4,162.4l-0.1-0.2l-0.8-10.2c38,11,72.9,24.9,73.3,25.1
	c1.2,0.5,2.1,1.4,2.6,2.5l118.7,118.7C297.5,299.4,298.6,302.1,297.6,304.5z"/>
<linearGradient id="SVGID_11_" gradientUnits="userSpaceOnUse" x1="176.5042" y1="289.027" x2="142.3709" y2="373.5477" gradientTransform="matrix(1 0 0 -1 0 512)">
	<stop  offset="2.900000e-03" style="stop-color:#C2E0FF;stop-opacity:0"/>
	<stop  offset="7.630000e-02" style="stop-color:#BFDCFD;stop-opacity:7.451000e-02"/>
	<stop  offset="1" style="stop-color:#9EB2E7"/>
</linearGradient>
<path class="st10" d="M281.7,324.7c-0.4,2.4-2.5,4-4.8,4h0c-0.3,0-0.6,0-0.8-0.1c-0.3-0.1-23.9-4.3-51.4-4.4l-93.7-93.7l-27.1-27.1
	c-0.1-3.4-0.2-6.7-0.4-10.1c11.3,0,21.8,0.7,30.5,1.5c13.1,1.3,21.9,2.9,22.7,3c1.6,0.3,2.9,1.4,3.5,2.8l92.4,92.4l26.3,26.3
	C280.9,320.4,282.1,322.5,281.7,324.7z"/>
<linearGradient id="SVGID_12_" gradientUnits="userSpaceOnUse" x1="181.7455" y1="246.439" x2="140.7042" y2="328.5217" gradientTransform="matrix(1 0 0 -1 0 512)">
	<stop  offset="2.900000e-03" style="stop-color:#C2E0FF;stop-opacity:0"/>
	<stop  offset="7.630000e-02" style="stop-color:#BFDCFD;stop-opacity:7.451000e-02"/>
	<stop  offset="1" style="stop-color:#9EB2E7"/>
</linearGradient>
<path class="st11" d="M289.9,352.2c-0.4,0.1-33.9,6.1-66.4,20.1L103.1,251.9c0.2-3.9,0.4-7.8,0.5-11.7c9.4-3.8,18.7-7,27.2-9.6
	c13.2-4,24.4-6.6,30.8-7.9c3.2-0.7,5.1-1,5.5-1.1c2.2-0.4,4.3,0.8,5.3,2.7L291.1,343c1.4,0.6,2.5,1.9,2.8,3.6
	C294.3,349.2,292.6,351.8,289.9,352.2z"/>
<linearGradient id="SVGID_13_" gradientUnits="userSpaceOnUse" x1="77.7589" y1="386.8395" x2="156.5795" y2="308.0187" gradientTransform="matrix(1 0 0 -1 0 512)">
	<stop  offset="0" style="stop-color:#45425A"/>
	<stop  offset="1" style="stop-color:#2D3251"/>
</linearGradient>
<path class="st12" d="M172,186.5c-0.6,0-1.2-0.1-1.8-0.4c-0.6-0.2-61.1-24.3-108.9-33.9c-2.6-0.5-4.4-3.1-3.8-5.7
	c0.5-2.6,3.1-4.4,5.7-3.8c48.6,9.7,110,34.1,110.6,34.4c2.5,1,3.7,3.8,2.7,6.3C175.8,185.4,174,186.5,172,186.5z"/>
<linearGradient id="SVGID_14_" gradientUnits="userSpaceOnUse" x1="89.5422" y1="335.231" x2="139.1042" y2="285.6691" gradientTransform="matrix(1 0 0 -1 0 512)">
	<stop  offset="0" style="stop-color:#45425A"/>
	<stop  offset="1" style="stop-color:#2D3251"/>
</linearGradient>
<path class="st13" d="M155.8,207.6c-0.3,0-0.6,0-0.9-0.1c-0.4-0.1-43.6-7.9-81.3-2.4c-2.7,0.4-5.1-1.5-5.5-4.1
	c-0.4-2.7,1.5-5.1,4.1-5.5c39.4-5.7,82.7,2.1,84.5,2.5c2.6,0.5,4.4,3,3.9,5.7C160.1,206,158.1,207.6,155.8,207.6z"/>
<linearGradient id="SVGID_15_" gradientUnits="userSpaceOnUse" x1="105.7948" y1="288.095" x2="141.543" y2="252.347" gradientTransform="matrix(1 0 0 -1 0 512)">
	<stop  offset="0" style="stop-color:#45425A"/>
	<stop  offset="1" style="stop-color:#2D3251"/>
</linearGradient>
<path class="st14" d="M79.4,262.1c-1.7,0-3.3-0.9-4.2-2.4c-1.3-2.3-0.5-5.3,1.8-6.7c38.5-22.1,88.1-31.1,90.2-31.5
	c2.6-0.5,5.2,1.3,5.7,3.9c0.5,2.7-1.3,5.2-3.9,5.7c-0.5,0.1-50,9.1-87,30.3C81,261.9,80.2,262.1,79.4,262.1z"/>
<linearGradient id="SVGID_16_" gradientUnits="userSpaceOnUse" x1="397.2794" y1="289.1738" x2="366.8031" y2="361.0977" gradientTransform="matrix(1 0 0 -1 0 512)">
	<stop  offset="2.900000e-03" style="stop-color:#C2E0FF;stop-opacity:0"/>
	<stop  offset="7.630000e-02" style="stop-color:#BFDCFD;stop-opacity:7.451000e-02"/>
	<stop  offset="1" style="stop-color:#9EB2E7"/>
</linearGradient>
<path class="st15" d="M410.4,171.8L412,152c-38,11-72.9,24.9-73.3,25.1c-2.5,1-3.7,3.8-2.7,6.3c0.5,1.2,1.3,2,2.4,2.5l71.4,71.4
	C407.9,229,408.1,200.3,410.4,171.8z"/>
<linearGradient id="SVGID_17_" gradientUnits="userSpaceOnUse" x1="393.5737" y1="281.4476" x2="377.4213" y2="320.7619" gradientTransform="matrix(1 0 0 -1 0 512)">
	<stop  offset="2.900000e-03" style="stop-color:#C2E0FF;stop-opacity:0"/>
	<stop  offset="7.630000e-02" style="stop-color:#BFDCFD;stop-opacity:7.451000e-02"/>
	<stop  offset="1" style="stop-color:#9EB2E7"/>
</linearGradient>
<path class="st16" d="M410.1,262.7l-55.6-55.6c-1.3-0.7-2.3-1.9-2.6-3.5c-0.5-2.6,1.3-5.2,3.9-5.7c1.3-0.3,25.1-4.6,53.2-4.6
	c-0.7,15.6-0.8,31.2-0.2,46.7C409.1,247.7,409.5,255.2,410.1,262.7z"/>
<linearGradient id="SVGID_18_" gradientUnits="userSpaceOnUse" x1="388.3112" y1="243.2422" x2="357.2255" y2="320.6516" gradientTransform="matrix(1 0 0 -1 0 512)">
	<stop  offset="2.900000e-03" style="stop-color:#C2E0FF;stop-opacity:0"/>
	<stop  offset="7.630000e-02" style="stop-color:#BFDCFD;stop-opacity:7.451000e-02"/>
	<stop  offset="1" style="stop-color:#9EB2E7"/>
</linearGradient>
<path class="st17" d="M414.4,302.7l-72.1-72.1c-1.9-0.9-3-3-2.6-5.2c0.5-2.7,3-4.4,5.7-3.9c1,0.2,13.8,2.5,31.1,7.5
	c9.8,2.8,21,6.5,32.4,11.1c0.3,7.5,0.7,15,1.2,22.5C411.1,276.1,412.5,289.4,414.4,302.7z"/>
<linearGradient id="SVGID_19_" gradientUnits="userSpaceOnUse" x1="107.8218" y1="386.7191" x2="186.3349" y2="308.206" gradientTransform="matrix(-1.0039 0 0 -1.0039 542.9503 513.3962)">
	<stop  offset="0" style="stop-color:#45425A"/>
	<stop  offset="1" style="stop-color:#2D3251"/>
</linearGradient>
<path class="st18" d="M340.4,186.5c0.6,0,1.2-0.1,1.8-0.4c0.6-0.2,61.1-24.3,108.9-33.9c2.6-0.5,4.4-3.1,3.8-5.7s-3.1-4.4-5.7-3.8
	c-48.6,9.7-110,34.1-110.6,34.4c-2.5,1-3.7,3.8-2.7,6.3C336.7,185.4,338.5,186.5,340.4,186.5z"/>
<linearGradient id="SVGID_20_" gradientUnits="userSpaceOnUse" x1="119.5591" y1="335.3124" x2="168.9282" y2="285.9433" gradientTransform="matrix(-1.0039 0 0 -1.0039 542.9503 513.3962)">
	<stop  offset="0" style="stop-color:#45425A"/>
	<stop  offset="1" style="stop-color:#2D3251"/>
</linearGradient>
<path class="st19" d="M356.7,207.6c0.3,0,0.6,0,0.9-0.1c0.4-0.1,43.6-7.9,81.3-2.4c2.7,0.4,5.1-1.5,5.5-4.1c0.4-2.7-1.5-5.1-4.1-5.5
	c-39.4-5.7-82.7,2.1-84.5,2.5c-2.6,0.5-4.4,3-3.9,5.7C352.3,206,354.4,207.6,356.7,207.6z"/>
<linearGradient id="SVGID_21_" gradientUnits="userSpaceOnUse" x1="135.7479" y1="288.3603" x2="171.3564" y2="252.7519" gradientTransform="matrix(-1.0039 0 0 -1.0039 542.9503 513.3962)">
	<stop  offset="0" style="stop-color:#45425A"/>
	<stop  offset="1" style="stop-color:#2D3251"/>
</linearGradient>
<path class="st20" d="M433.1,262.1c1.7,0,3.3-0.9,4.2-2.4c1.3-2.3,0.5-5.3-1.8-6.7c-38.5-22.1-88.1-31.1-90.2-31.5
	c-2.6-0.5-5.2,1.3-5.7,3.9c-0.5,2.7,1.3,5.2,3.9,5.7c0.5,0.1,50,9.1,87,30.3C431.4,261.9,432.3,262.1,433.1,262.1z"/>
<g>
	<g>
		<path class="st21" d="M351.7,243.8v-5.1c0-13-10.6-23.7-23.6-23.7h-70.7c-13,0-23.6,10.7-23.6,23.7v5.1H351.7z"/>
		<path class="st22" d="M288.2,215h-30.8c-13,0-23.6,10.7-23.6,23.7v5.1h30.8v-5.1C264.6,225.7,275.3,215,288.2,215z"/>
		<path class="st22" d="M195,276.6v118.7c0,8.4-6.8,15.2-15.2,15.2h199.7c8.4,0,15.2-6.8,15.2-15.2V276.6H195z"/>
		<path class="st23" d="M224.3,395.2V276.6H195v118.7c0,8.4-6.8,15.2-15.2,15.2h29.3C217.5,410.4,224.3,403.6,224.3,395.2z"/>
		<path class="st24" d="M379.4,243.7H179.8c8.4,0,15.2,6.8,15.2,15.2v18.8h199.7v-18.8C394.6,250.5,387.8,243.7,379.4,243.7z"/>
		<path class="st24" d="M379.4,243.7H179.8c8.4,0,15.2,6.8,15.2,15.2v18.8h199.7v-18.8C394.6,250.5,387.8,243.7,379.4,243.7z"/>
		<path class="st25" d="M209.1,243.7h-29.3c8.4,0,15.2,6.8,15.2,15.2v18.8h29.3v-18.8C224.3,250.5,217.5,243.7,209.1,243.7z"/>
		<path class="st21" d="M172.6,222.1h-26.7c-3.8,0-6.9,3.1-6.9,6.9v7.9c0,3.8,3.1,6.9,6.9,6.9h26.7c3.8,0,6.9-3.1,6.9-6.9V229
			C179.5,225.2,176.4,222.1,172.6,222.1z"/>
		<path class="st22" d="M159.3,236.9V229c0-3.8,3.1-6.9,6.9-6.9h-20.2c-3.8,0-6.9,3.1-6.9,6.9v7.9c0,3.8,3.1,6.9,6.9,6.9h20.2
			C162.4,243.8,159.3,240.7,159.3,236.9z"/>
		<path class="st21" d="M122.4,276.6v118.7c0,8.4,6.8,15.2,15.2,15.2h43.3c8.4,0,15.2-6.8,15.2-15.2V276.6H122.4z"/>
		<path class="st22" d="M149.9,395.2V276.6h-27.5v118.7c0,8.4,6.8,15.2,15.2,15.2h27.5C156.8,410.4,149.9,403.6,149.9,395.2z"/>
		<path class="st26" d="M180.9,243.7h-43.3c-8.4,0-15.2,6.8-15.2,15.2v18.8h73.6v-18.8C196.1,250.5,189.2,243.7,180.9,243.7z"/>
		<path class="st24" d="M165.1,243.7h-27.5c-8.4,0-15.2,6.8-15.2,15.2v18.8h27.5v-18.8C149.9,250.5,156.8,243.7,165.1,243.7z"/>
		<g>
			<g>
				<path class="st23" d="M292.7,419c-43.7,0-79.3-35.6-79.3-79.3s35.6-79.3,79.3-79.3S372,296,372,339.7S336.4,419,292.7,419
					L292.7,419z"/>
			</g>
		</g>
		<path class="st27" d="M240.1,339.7c0-39.2,28.6-71.8,66-78.1c-4.3-0.7-8.8-1.1-13.3-1.1c-43.7,0-79.3,35.6-79.3,79.3
			S249,419,292.7,419c4.5,0,9-0.4,13.3-1.1C268.6,411.5,240.1,378.9,240.1,339.7L240.1,339.7z"/>
		<ellipse class="st28" cx="292.7" cy="339.7" rx="62.1" ry="62.1"/>
		<path class="st29" d="M257.3,339.7c0-29.7,20.9-54.5,48.8-60.6c-4.3-0.9-8.7-1.4-13.3-1.4c-34.2,0-62.1,27.8-62.1,62.1
			s27.8,62.1,62.1,62.1c4.6,0,9-0.5,13.3-1.4C278.2,394.3,257.3,369.4,257.3,339.7L257.3,339.7z"/>
		<ellipse class="st29" cx="292.7" cy="339.7" rx="38" ry="38"/>
		<path class="st30" d="M281.3,339.7c0-16.3,10.3-30.2,24.7-35.6c-4.1-1.6-8.6-2.4-13.3-2.4c-21,0-38.1,17.1-38.1,38.1
			c0,21,17.1,38.1,38.1,38.1c4.7,0,9.2-0.9,13.3-2.4C291.6,370,281.3,356,281.3,339.7L281.3,339.7z"/>
		<ellipse class="st31" cx="292.7" cy="339.7" rx="11.6" ry="11.6"/>
		<path class="st28" d="M292.7,339.7c0-4.3,2.3-8,5.8-10c-1.7-1-3.7-1.6-5.8-1.6c-6.4,0-11.6,5.2-11.6,11.6s5.2,11.6,11.6,11.6
			c2.1,0,4.1-0.6,5.8-1.6C295.1,347.7,292.7,344,292.7,339.7z"/>
	</g>
</g>
</svg>
