<?xml version="1.0"?>
<svg xmlns="http://www.w3.org/2000/svg" viewBox="0 0 64 64" width="512" height="512"><path d="m31 33h2a28 28 0 0 1 28 28 0 0 0 0 1 0 0h-58a0 0 0 0 1 0 0 28 28 0 0 1 28-28z" fill="#fdbd40"/><rect fill="#aabece" height="42" rx="1" width="6" x="29" y="4"/><rect fill="#e9686a" height="16" rx="1" width="18" x="33" y="4"/><path d="m50 9h11v14h-11z" fill="#f7979c"/><g fill="#cfdfe8"><path d="m7 17a1 1 0 0 1 -1-1 3 3 0 0 0 -3-3 1 1 0 0 1 0-2 3 3 0 0 0 3-3 1 1 0 0 1 2 0 3 3 0 0 0 3 3 1 1 0 0 1 0 2 3 3 0 0 0 -3 3 1 1 0 0 1 -1 1zm-1-5a5.043 5.043 0 0 1 1 1 5.043 5.043 0 0 1 1-1 5.043 5.043 0 0 1 -1-1 5.043 5.043 0 0 1 -1 1z"/><path d="m22 30a1 1 0 0 1 -1-1 3 3 0 0 0 -3-3 1 1 0 0 1 0-2 3 3 0 0 0 3-3 1 1 0 0 1 2 0 3 3 0 0 0 3 3 1 1 0 0 1 0 2 3 3 0 0 0 -3 3 1 1 0 0 1 -1 1zm-1-5a5.043 5.043 0 0 1 1 1 5.043 5.043 0 0 1 1-1 5.043 5.043 0 0 1 -1-1 5.043 5.043 0 0 1 -1 1z"/><path d="m16 2h2v2h-2z"/><path d="m16 6h2v2h-2z"/><path d="m14 4h2v2h-2z"/><path d="m18 4h2v2h-2z"/><path d="m55 29h2v2h-2z"/><path d="m55 33h2v2h-2z"/><path d="m53 31h2v2h-2z"/><path d="m57 31h2v2h-2z"/><path d="m6 30h2v2h-2z"/><path d="m10 32h2v2h-2z"/><path d="m45 25h2v2h-2z"/><path d="m41 27h2v2h-2z"/></g><ellipse cx="18" cy="47" fill="#fcf05a" rx="5" ry="2"/><ellipse cx="50" cy="54" fill="#fcf05a" rx="5" ry="3"/><ellipse cx="32" cy="55" fill="#fcf05a" rx="3" ry="2"/><ellipse cx="42" cy="43" fill="#fcf05a" rx="4" ry="2"/></svg>
